<svg width="15" height="24" viewBox="0 0 15 24" fill="none" xmlns="http://www.w3.org/2000/svg">
<path d="M11.8667 12.0384C10.7414 13.0134 9.32208 13.5836 7.83501 13.6582C6.34794 13.7328 4.87871 13.3074 3.66151 12.4499C2.44431 11.5924 1.54921 10.352 1.1189 8.92664C0.688586 7.50124 0.747827 5.97281 1.28718 4.585C1.82653 3.19718 2.81495 2.02986 4.09487 1.26912C5.37479 0.508373 6.87255 0.197994 8.34938 0.387453C9.82621 0.576913 11.1971 1.25531 12.2436 2.3145C13.29 3.37369 13.9518 4.7527 14.1233 6.23172C14.7167 9.24838 14.71 12.8434 13.35 16.0651C11.9133 19.4651 9.015 22.3317 4.06667 23.6267C3.90732 23.6701 3.74095 23.6814 3.5772 23.6601C3.41344 23.6387 3.25553 23.5852 3.11259 23.5025C2.96965 23.4198 2.84452 23.3095 2.74443 23.1782C2.64433 23.0468 2.57125 22.897 2.52941 22.7372C2.48757 22.5775 2.47781 22.411 2.50067 22.2474C2.52354 22.0839 2.57859 21.9265 2.66264 21.7843C2.74669 21.6422 2.85807 21.5181 2.99035 21.4192C3.12264 21.3204 3.2732 21.2487 3.43334 21.2084C7.65167 20.1034 9.92 17.7584 11.0467 15.0917C11.453 14.1144 11.7287 13.0878 11.8667 12.0384Z" fill="url(#paint0_linear_218_250)"/>
<defs>
<linearGradient id="paint0_linear_218_250" x1="14.4992" y1="0.333252" x2="-5.85271" y2="12.25" gradientUnits="userSpaceOnUse">
<stop stop-color="#F76680"/>
<stop offset="1" stop-color="#57007B"/>
</linearGradient>
</defs>
</svg>
